<svg width="16" height="16" viewBox="0 0 16 16" fill="none" xmlns="http://www.w3.org/2000/svg">
    <path d="M8 7.854v.875c0 .255.182.438.437.438a.432.432 0 0 0 .437-.438v-.437h1.604v2.916h-.583c-.255 0-.437.2-.437.438 0 .255.182.437.437.437h2.042a.432.432 0 0 0 .437-.437c0-.237-.2-.438-.437-.438h-.583V8.292h1.604v.437c0 .255.182.438.437.438a.432.432 0 0 0 .438-.438v-.875c0-.237-.2-.437-.438-.437H8.437c-.255 0-.438.2-.438.437zm-5.834-3.5v1.458c0 .256.182.438.438.438a.432.432 0 0 0 .437-.438v-1.02h2.188v6.416h-.875c-.256 0-.438.2-.438.438 0 .255.182.437.438.437h2.625a.432.432 0 0 0 .437-.437c0-.237-.2-.438-.437-.438h-.875V4.792H8.29v1.02c0 .256.182.438.438.438a.432.432 0 0 0 .437-.438V4.354c0-.237-.2-.437-.437-.437H2.604c-.256 0-.438.2-.438.437z" fill="#4D5358"/>
</svg>
