<svg width="16" height="16" viewBox="0 0 16 16" fill="none" xmlns="http://www.w3.org/2000/svg">
    <path d="M10.834 6.083c.23 0 .417.188.417.417v.083h1.25a.418.418 0 0 1 0 .833h-.042l-.042.105a4.1 4.1 0 0 1-.833 1.354c.02.02.042.02.063.042l.395.229c.188.125.25.375.146.583a.454.454 0 0 1-.583.146l-.396-.25a1.902 1.902 0 0 1-.27-.167 3.883 3.883 0 0 1-.71.396l-.062.042a.445.445 0 0 1-.562-.209c-.084-.229 0-.458.208-.562l.083-.02c.125-.063.271-.147.396-.21l-.27-.25a.472.472 0 0 1 0-.603.428.428 0 0 1 .604 0l.291.312h.021c.25-.27.458-.583.625-.937H9.334A.405.405 0 0 1 8.917 7c0-.23.167-.417.417-.417h1.083V6.5c0-.23.167-.417.417-.417zM4.251 8.417l.416-.875.396.875h-.812zM13.334 4c.73 0 1.333.604 1.333 1.333v5.334A1.33 1.33 0 0 1 13.334 12H2.667c-.75 0-1.333-.583-1.333-1.333V5.333C1.334 4.604 1.917 4 2.667 4h10.667zm0 1H8.001v6h5.333a.343.343 0 0 0 .333-.333V5.333A.358.358 0 0 0 13.334 5zM5.042 6.333a.435.435 0 0 0-.375-.25.442.442 0 0 0-.396.25l-1.333 3a.445.445 0 0 0 .208.563c.209.083.459 0 .563-.209l.187-.437h1.521l.188.438c.104.208.354.291.562.208a.445.445 0 0 0 .209-.563l-1.334-3z" fill="#4D5358"/>
</svg>
