<svg width="16" height="16" viewBox="0 0 16 16" fill="none" xmlns="http://www.w3.org/2000/svg">
    <path d="M3.625 6.236h-1.75A.858.858 0 0 0 1 7.084v6.098c0 .464.383.847.875.847h1.75c.465 0 .875-.383.875-.847v-6.07a.9.9 0 0 0-.875-.876zM15 7.193c0-.984-.848-1.804-1.832-1.804h-2.734c.246-.684.41-1.285.41-1.641 0-.93-.739-1.86-1.942-1.86-1.257 0-1.613.876-1.886 1.587-.875 2.214-1.641 1.804-1.641 2.543 0 .355.273.656.656.656a.512.512 0 0 0 .383-.137C8.52 4.87 8 3.201 8.902 3.201c.465 0 .63.328.63.547 0 .219-.22 1.094-.712 1.969a.728.728 0 0 0-.082.328c0 .383.301.629.657.629h3.746c.3.027.546.246.546.52 0 .273-.218.519-.492.519a.68.68 0 0 0-.629.656c0 .438.329.438.329.793 0 .684-.957.328-.957 1.148 0 .301.164.356.164.602 0 .629-.82.383-.82 1.121 0 .137.054.164.054.274 0 .273-.246.52-.52.52H9.367c-.71 0-1.394-.247-1.941-.657l-1.012-.766a.653.653 0 0 0-.383-.136c-.383 0-.683.328-.683.656 0 .219.109.41.273.547l1.012.738c.793.601 1.75.902 2.734.902h1.45a1.8 1.8 0 0 0 1.804-1.695c.492-.328.793-.875.793-1.504v-.246a1.85 1.85 0 0 0 .793-1.504c0-.137-.027-.273-.055-.437.493-.329.848-.875.848-1.532z" fill="#4D5358"/>
</svg>
