<svg width="16" height="16" viewBox="0 0 16 16" fill="none" xmlns="http://www.w3.org/2000/svg">
    <path d="M11.5 8.861V2.764c0-.493.41-.875.875-.875h1.75c.492 0 .875.41.875.875V8.86a.858.858 0 0 1-.875.848h-1.75a.84.84 0 0 1-.875-.848zM1.848 7.275a2.393 2.393 0 0 1-.055-.437c0-.629.328-1.176.793-1.504v-.246c0-.629.3-1.176.793-1.504a1.8 1.8 0 0 1 1.805-1.695h1.449c.984 0 1.941.3 2.734.902l1.012.738a.688.688 0 0 1 .246.547.665.665 0 0 1-.656.656.653.653 0 0 1-.383-.136L8.574 3.83a3.256 3.256 0 0 0-1.941-.656h-1.45a.538.538 0 0 0-.519.52c0 .109.055.136.055.273 0 .738-.82.492-.82 1.12 0 .247.163.274.163.602 0 .383-.3.602-.519.63a.552.552 0 0 0-.438.519c0 .355.329.355.329.793a.68.68 0 0 1-.63.656.508.508 0 0 0-.491.492c0 .274.246.52.519.52h3.773c.356 0 .657.273.657.629 0 .11-.028.218-.082.3-.492.93-.711 1.805-.711 2.024 0 .219.164.547.629.547.328 0 .382 0 .656-.766.684-1.695 1.695-2.707 2.215-2.707.383 0 .656.301.656.656a.585.585 0 0 1-.246.493C8.492 11.979 9.23 14.11 7.098 14.11c-1.203 0-1.942-.957-1.942-1.859 0-.356.164-.984.41-1.64H2.832A1.85 1.85 0 0 1 1 8.778c0-.629.355-1.203.848-1.504z" fill="#4D5358"/>
</svg>
