<svg width="16" height="16" viewBox="0 0 16 16" fill="none" xmlns="http://www.w3.org/2000/svg">
    <path d="M12.375 1.917h1.75c.492 0 .875.382.875.846v6.083a.857.857 0 0 1-.875.845h-1.75c-.465 0-.875-.382-.875-.845V2.79a.88.88 0 0 1 .875-.873zM2.23 7.591a1.327 1.327 0 0 1-.355-.9c0-.628.465-1.173 1.094-1.282a1.13 1.13 0 0 1-.219-.682c0-.6.383-1.091.93-1.255a.683.683 0 0 1-.055-.273c0-.709.602-1.309 1.313-1.309H6.55c.957 0 1.86.327 2.625.873l.93.71c.328.245.519.626.519 1.036v4.364c0 .382-.164.764-.492 1.01l-.438.354c-2.242 1.8-1.23 3.873-2.953 3.873a1.3 1.3 0 0 1-1.34-1.31c0-.408.301-1.581.93-2.618h-4.02C1.603 10.182 1 9.61 1 8.872a1.29 1.29 0 0 1 1.23-1.281z" fill="#525252"/>
</svg>
