<svg width="16" height="16" viewBox="0 0 16 16" fill="none" xmlns="http://www.w3.org/2000/svg">
    <path d="M4.5 13.237v-6.11a.88.88 0 0 0-.875-.873h-1.75A.88.88 0 0 0 1 7.127v6.083c0 .464.383.845.875.845h1.75c.465.055.875-.327.875-.818zM15 7.154c0-.736-.602-1.309-1.313-1.309H9.668c.629-1.036.957-2.21.957-2.618 0-.655-.52-1.337-1.367-1.337-1.723 0-.711 2.1-2.953 3.873l-.438.355a1.29 1.29 0 0 0-.492 1.01v4.363c0 .437.191.819.52 1.064l.93.682a4.337 4.337 0 0 0 2.624.873h1.614c.71 0 1.312-.573 1.312-1.282a.976.976 0 0 0-.055-.3c.547-.164.93-.655.93-1.255 0-.245-.082-.463-.219-.654.63-.137 1.094-.655 1.094-1.282 0-.355-.137-.655-.355-.9A1.29 1.29 0 0 0 15 7.153z" fill="#525252"/>
</svg>
