<svg width="16" height="16" viewBox="0 0 16 16" fill="none" xmlns="http://www.w3.org/2000/svg">
    <path d="M5.29 8c0-1.45 1.192-2.625 2.724-2.625 1.504 0 2.724 1.176 2.724 2.625 0 1.45-1.22 2.625-2.724 2.625C6.482 10.625 5.29 9.449 5.29 8zm2.724-1.313c-.766 0-1.362.602-1.362 1.313 0 .738.596 1.313 1.362 1.313.738 0 1.362-.575 1.362-1.313 0-.71-.624-1.313-1.362-1.313zM9.064 1c.624 0 1.163.438 1.305 1.012l.227.902c.256.11.483.246.681.383l.937-.274c.595-.164 1.248.082 1.56.602l1.05 1.777c.312.52.199 1.176-.255 1.586l-.681.63c0 .136.028.273.028.382 0 .137-.028.273-.028.383l.68.656c.455.41.568 1.066.256 1.586l-1.05 1.777c-.312.52-.965.766-1.56.602l-.937-.274a3.945 3.945 0 0 1-.68.383l-.228.903c-.142.574-.68.984-1.305.984H6.936c-.624 0-1.163-.41-1.305-.984l-.227-.903a3.947 3.947 0 0 1-.681-.383l-.937.274c-.595.164-1.248-.082-1.56-.602l-1.05-1.777c-.312-.52-.199-1.176.255-1.586l.681-.656v-.766l-.68-.629c-.455-.41-.568-1.066-.256-1.586l1.05-1.777c.312-.52.965-.766 1.56-.602l.937.274c.198-.137.425-.274.68-.383l.228-.902A1.353 1.353 0 0 1 6.936 1h2.128zM6.567 3.844l-.312.136c-.369.137-.71.329-.993.547l-.284.22-1.56-.466-1.05 1.778L3.53 7.125l-.028.328c-.029.192-.029.383-.029.547 0 .191 0 .383.029.574l.028.328L2.368 9.97l1.05 1.777 1.56-.465.284.219c.284.219.624.41.993.547l.312.137.369 1.504h2.128l.369-1.504.312-.137c.369-.137.71-.328.993-.547l.284-.219 1.56.465 1.05-1.777-1.163-1.067.028-.328c.029-.191.057-.383.057-.574 0-.164-.028-.355-.057-.547l-.028-.328 1.163-1.066-1.05-1.778-1.56.465-.284-.219a3.815 3.815 0 0 0-.993-.547l-.312-.136-.369-1.531H6.936l-.369 1.53z" fill="#4D5358"/>
</svg>
