<svg width="16" height="16" viewBox="0 0 16 16" fill="none" xmlns="http://www.w3.org/2000/svg">
    <path d="M7.344 4.281c0-.355.273-.656.656-.656.355 0 .656.3.656.656v3.39l2.324 1.532c.301.219.383.629.165.93a.628.628 0 0 1-.903.164l-2.625-1.75A.673.673 0 0 1 7.344 8V4.281zM8 1c3.855 0 7 3.145 7 7 0 3.883-3.145 7-7 7-3.883 0-7-3.117-7-7 0-3.855 3.117-7 7-7zM2.312 8A5.683 5.683 0 0 0 8 13.688c3.117 0 5.688-2.543 5.688-5.688 0-3.117-2.57-5.688-5.688-5.688-3.145 0-5.688 2.57-5.688 5.688z" fill="#4D5358"/>
</svg>
