<svg width="16" height="16" viewBox="0 0 16 16" fill="none" xmlns="http://www.w3.org/2000/svg">
    <path d="M7.344 1.133c.027-.082.11-.136.218-.136.083 0 .165.054.192.136l.383 1.04 1.039.382c.082.028.136.11.136.192 0 .109-.054.191-.136.218l-1.04.383-.382 1.012a.206.206 0 0 1-.191.137c-.11 0-.192-.055-.22-.137l-.382-1.012-1.04-.383c-.081-.027-.109-.109-.109-.218 0-.082.028-.164.11-.192l1.039-.383.383-1.039zm6.754.274.93.93c.519.519.519 1.34 0 1.859L4.608 14.614c-.52.52-1.34.52-1.859 0l-.93-.93c-.52-.52-.52-1.34 0-1.86L12.238 1.408c.52-.52 1.34-.52 1.86 0zm-.93.902L10.16 5.317l.957.957 2.98-3.008-.929-.957zM3.68 13.684l6.508-6.48-.958-.957-6.48 6.507.93.93zM.754 4.224l1.558-.602.575-1.532c.027-.136.164-.218.3-.218.11 0 .247.082.274.218l.602 1.532 1.53.601c.137.027.22.164.22.274 0 .136-.083.273-.22.3l-1.53.575L3.46 6.93c-.027.11-.164.192-.273.192-.137 0-.274-.082-.301-.192l-.575-1.558-1.558-.575c-.137-.027-.192-.164-.192-.3 0-.11.055-.247.192-.274zm9.625 7 1.559-.602.574-1.532c.027-.136.164-.218.3-.218.11 0 .247.082.274.218l.601 1.532 1.532.601c.136.027.219.164.219.274 0 .136-.083.273-.22.3l-1.53.575-.602 1.558c-.027.11-.164.192-.274.192-.136 0-.273-.082-.3-.192l-.575-1.558-1.558-.575c-.137-.027-.191-.164-.191-.3 0-.11.054-.246.19-.274z" fill="#4D5358"/>
</svg>
