<svg width="16" height="16" viewBox="0 0 16 16" fill="none" xmlns="http://www.w3.org/2000/svg">
    <path d="M8 .75c-3.883 0-7 3.145-7 7 0 3.883 3.117 7 7 7 3.855 0 7-3.117 7-7 0-3.855-3.145-7-7-7zm0 12.688A5.683 5.683 0 0 1 2.312 7.75c0-3.117 2.543-5.688 5.688-5.688 3.117 0 5.688 2.57 5.688 5.688 0 3.145-2.57 5.688-5.688 5.688zm1.094-3.5h-.438V7.53c0-.355-.3-.656-.656-.656h-.875c-.383 0-.656.3-.656.656 0 .383.273.657.656.657h.219v1.75h-.438c-.383 0-.656.3-.656.656 0 .383.273.656.656.656h2.188a.648.648 0 0 0 .656-.656c0-.356-.3-.656-.656-.656zM8 6a.881.881 0 0 0 .875-.875A.9.9 0 0 0 8 4.25a.881.881 0 0 0-.875.875c0 .492.383.875.875.875z" fill="#4D5358"/>
</svg>
